<svg width="105" height="87" viewBox="0 0 105 87" fill="none" xmlns="http://www.w3.org/2000/svg">
<path d="M0.745033 81.9271C1.15894 82.2159 1.69702 82.4634 2.35927 82.4634C3.10431 82.4634 3.43543 82.0096 3.43543 81.1433V74.1304H5.21523V80.3183C5.21523 80.7721 5.21523 81.3496 5.17384 81.8446C5.00828 83.1647 4.09768 83.9485 2.52483 83.9485C1.3245 83.9485 0.496689 83.536 0 83.2059L0.745033 81.9271Z" fill="#BA1449"/>
<path d="M12.8311 76.4406V82.5459L12.9553 83.7835H11.4652L11.3824 82.9172H11.3411C10.8444 83.6597 10.0579 83.9897 9.23013 83.9897C7.61589 83.9897 6.82947 83.1647 6.82947 81.4321V76.4818H8.56788V81.1021C8.56788 81.9684 8.73344 82.6284 9.68543 82.6284C10.4719 82.6284 11.1341 81.9271 11.1341 81.2258V76.4406H12.8311Z" fill="#BA1449"/>
<path d="M14.404 83.7422V77.6781L14.2798 76.3993H15.7285L15.894 77.3069C16.3907 76.5643 17.1771 76.1931 18.1291 76.1931C19.5778 76.1931 20.447 77.0181 20.447 78.7094V83.701H18.7086V79.0807C18.7086 78.2144 18.543 77.5131 17.6324 77.5131C16.7632 77.5131 16.1424 78.2144 16.1424 78.9982V83.701H14.404V83.7422Z" fill="#BA1449"/>
<path d="M22.8477 73.3879C23.4271 73.3879 23.841 73.8417 23.841 74.3779C23.841 74.9142 23.4271 75.3267 22.8477 75.3267C22.2268 75.3267 21.8543 74.9142 21.8543 74.3779C21.8129 73.8417 22.2268 73.3879 22.8477 73.3879ZM21.9785 83.7422V76.4406H23.7169V83.7422H21.9785Z" fill="#BA1449"/>
<path d="M28.2284 76.2343C29.3046 76.2343 31.4155 76.5643 31.4155 79.9058C31.4155 82.7109 29.9255 83.9897 28.0215 83.9897C26.0761 83.9897 24.8758 82.7522 24.8758 80.112C24.8344 77.0594 26.697 76.2343 28.2284 76.2343ZM29.5943 80.1533C29.5943 78.5444 29.2218 77.5131 28.1043 77.5131C27.0281 77.5131 26.5728 78.5032 26.5728 79.9058C26.5728 81.2671 26.7798 82.7109 28.1043 82.7109C29.139 82.7109 29.5943 81.6384 29.5943 80.1533Z" fill="#BA1449"/>
<path d="M34.2715 83.7422H32.5331V77.6369L32.4089 76.4406H33.8162L33.9818 77.5131C34.3129 76.6881 35.0166 76.2343 35.7616 76.2343C36.2169 76.2343 36.5894 76.3168 36.9205 76.5231L36.6308 78.0082C36.2997 77.8431 35.9685 77.7194 35.596 77.7194C34.8096 77.7194 34.3129 78.3382 34.2715 79.2045V83.7422Z" fill="#BA1449"/>
<path d="M36.4652 78.9157H40.2732V80.2358H36.4652V78.9157Z" fill="#BA1449"/>
<path d="M41.4735 74.0892H47.3096V75.6155H43.2533V78.0494H46.7301V79.5757H43.2533V82.1746H47.3924V83.701H41.4321V74.0892H41.4735Z" fill="#BA1449"/>
<path d="M48.5099 83.7422V77.6781L48.3857 76.3993H49.8344L50 77.3069C50.4967 76.5643 51.2831 76.1931 52.2351 76.1931C53.6838 76.1931 54.553 77.0181 54.553 78.7094V83.701H52.8146V79.0807C52.8146 78.2144 52.649 77.5131 51.7384 77.5131C50.8692 77.5131 50.2483 78.2144 50.2483 78.9982V83.701H48.5099V83.7422Z" fill="#BA1449"/>
<path d="M57.7814 73.6766V76.4818H59.7682V77.8431H57.7814V81.5146C57.7814 82.3809 58.1126 82.6696 58.7334 82.6696C59.1473 82.6696 59.4785 82.5046 59.7268 82.3809L60.1821 83.4947C59.7268 83.7835 59.0232 83.9897 58.3195 83.9897C56.043 83.9897 56.043 82.5871 56.043 81.5971V73.7179H57.7814V73.6766Z" fill="#BA1449"/>
<path d="M62.6242 83.7422H60.8858V77.6369L60.7616 76.4406H62.1689L62.3344 77.5131C62.6656 76.6881 63.3692 76.2343 64.1142 76.2343C64.5695 76.2343 64.9421 76.3168 65.2732 76.5231L64.9834 78.0082C64.6523 77.8431 64.3212 77.7194 63.9487 77.7194C63.1623 77.7194 62.6656 78.3382 62.6242 79.2045V83.7422Z" fill="#BA1449"/>
<path d="M71.1093 78.2557C71.1093 80.4833 68.3361 80.7721 66.9702 80.8133C67.0116 81.7621 67.5497 82.6697 68.7914 82.6697C69.6606 82.6697 70.2815 82.2571 70.6126 82.0509L71.1507 83.2059C70.9023 83.4122 69.9504 84.031 68.5845 84.031C66.1838 84.031 65.1904 82.5047 65.1904 80.3183C65.1904 78.1732 66.4322 76.2756 68.75 76.2756C70.1987 76.2343 71.1093 76.9768 71.1093 78.2557ZM68.6672 77.4719C67.5083 77.4719 66.9288 78.5857 66.8875 79.6995C67.6739 79.6995 69.5365 79.452 69.5365 78.3382C69.5365 77.8019 69.2053 77.4719 68.6672 77.4719Z" fill="#BA1449"/>
<path d="M73.7583 86.7949H72.0199V76.6881C73.0961 76.3581 74.1722 76.1931 74.9172 76.1931C77.2351 76.1931 78.3527 77.4719 78.3527 79.9883C78.3527 82.5459 77.1523 83.9072 75.2484 83.9072C74.6689 83.9072 74.1308 83.701 73.7169 83.4947V86.7949H73.7583ZM74.6275 77.5956C74.3792 77.5956 74.0894 77.6369 73.7583 77.6781V82.1746C74.1308 82.4222 74.6275 82.5459 75 82.5459C76.2418 82.5459 76.6143 81.3083 76.6143 80.1533C76.6143 78.4619 75.952 77.5956 74.6275 77.5956Z" fill="#BA1449"/>
<path d="M81.2914 83.7422H79.553V77.6369L79.4288 76.4406H80.8361L81.0017 77.5131C81.3328 76.6881 82.0365 76.2343 82.7815 76.2343C83.2368 76.2343 83.6093 76.3168 83.9404 76.5231L83.6507 78.0082C83.3196 77.8431 82.9884 77.7194 82.6159 77.7194C81.8295 77.7194 81.3328 78.3382 81.2914 79.2045V83.7422Z" fill="#BA1449"/>
<path d="M85.4718 73.3879C86.0513 73.3879 86.4652 73.8417 86.4652 74.3779C86.4652 74.9142 86.0513 75.3267 85.4718 75.3267C84.851 75.3267 84.4785 74.9142 84.4785 74.3779C84.4785 73.8417 84.851 73.3879 85.4718 73.3879ZM84.6026 83.7422V76.4406H86.341V83.7422H84.6026Z" fill="#BA1449"/>
<path d="M87.707 82.0096C88.2037 82.2984 89.0315 82.7109 89.7765 82.7109C90.3974 82.7109 90.8941 82.4222 90.8941 81.7621C90.8941 81.1021 90.356 80.8958 89.6523 80.6896C88.5762 80.4008 87.3758 80.0295 87.3758 78.5444C87.3758 77.0181 88.6176 76.2343 90.0249 76.2343C91.101 76.2343 92.053 76.6881 92.6739 77.2656L91.846 78.2969C91.308 77.8019 90.6871 77.5131 90.0662 77.5131C89.5282 77.5131 89.0315 77.7606 89.0315 78.3382C89.0315 78.9982 89.6523 79.2045 90.3146 79.4107C91.3907 79.7408 92.5497 80.1533 92.5497 81.6796C92.5497 83.206 91.4321 83.9897 89.7765 83.9897C88.5348 83.9897 87.5 83.536 87.1275 83.2472L87.707 82.0096Z" fill="#BA1449"/>
<path d="M99.0894 78.2557C99.0894 80.4833 96.3162 80.7721 94.9503 80.8133C94.9917 81.7621 95.5298 82.6697 96.7715 82.6697C97.6407 82.6697 98.2616 82.2571 98.5927 82.0509L99.1308 83.2059C98.8825 83.4122 97.9305 84.031 96.5646 84.031C94.1639 84.031 93.1705 82.5047 93.1705 80.3183C93.1705 78.1732 94.4123 76.2756 96.7301 76.2756C98.1788 76.2343 99.0894 76.9768 99.0894 78.2557ZM96.6474 77.4719C95.4884 77.4719 94.9089 78.5857 94.8675 79.6995C95.654 79.6995 97.5166 79.452 97.5166 78.3382C97.5166 77.8019 97.1854 77.4719 96.6474 77.4719Z" fill="#BA1449"/>
<path d="M99.9172 82.0096C100.414 82.2984 101.242 82.7109 101.987 82.7109C102.608 82.7109 103.104 82.4222 103.104 81.7621C103.104 81.1021 102.566 80.8958 101.863 80.6896C100.786 80.4008 99.5861 80.0295 99.5861 78.5444C99.5861 77.0181 100.828 76.2343 102.235 76.2343C103.311 76.2343 104.263 76.6881 104.884 77.2656L104.056 78.2969C103.518 77.8019 102.897 77.5131 102.276 77.5131C101.738 77.5131 101.242 77.7606 101.242 78.3382C101.242 78.9982 101.863 79.2045 102.525 79.4107C103.601 79.7408 104.76 80.1533 104.76 81.6796C104.76 83.206 103.642 83.9897 101.987 83.9897C100.745 83.9897 99.7103 83.536 99.3377 83.2472L99.9172 82.0096Z" fill="#BA1449"/>
<path d="M93.1292 24.5452H65.6871V39.3135H93.1292V24.5452Z" fill="#495053"/>
<path d="M93.1292 14.8096V1.77386C93.1292 0.82506 92.3428 0.0825195 91.4322 0.0825195H65.6871V14.8508H93.1292V14.8096Z" fill="#495053"/>
<path d="M63.6176 50.2041C62.1689 54.4531 59.9338 58.2895 56.9951 61.5072C55.9603 62.621 54.76 63.8174 53.3113 64.9724H64.6523H90.2732C91.8461 64.9724 93.1706 63.6936 93.1706 62.0848V50.1628H63.6176V50.2041Z" fill="#495053"/>
<path d="M21.0265 0.0412525V14.8096H38.9073C38.9073 21.575 38.8659 34.4869 38.9073 37.7871C38.9487 40.5923 38.4106 43.4387 36.8378 45.7901C35.2235 48.1827 32.7401 49.6265 29.9255 50.1628C26.4487 50.8228 22.5993 50.3278 19.495 48.5127C18.9984 48.2239 17.5911 47.3164 17.5911 47.3164L7.61591 56.9282C10.6374 59.6508 14.1556 61.8785 17.8808 63.446C22.7649 65.4674 27.8974 65.8799 33.154 65.3024C37.7484 64.8074 42.1772 63.5285 46.1921 61.2597C49.7103 59.2383 52.6904 56.3506 54.8013 52.8855C57.3676 48.6365 58.6921 43.6862 58.8162 38.7772C58.8576 37.3746 58.8162 0 58.8162 0L21.0265 0.0412525Z" fill="#BA1449"/>
</svg>
